<?xml version="1.0" standalone="no"?>
<!DOCTYPE svg PUBLIC "-//W3C//DTD SVG 20010904//EN"
 "http://www.w3.org/TR/2001/REC-SVG-20010904/DTD/svg10.dtd">
<svg version="1.0" xmlns="http://www.w3.org/2000/svg"
 width="200.000000pt" height="200.000000pt" viewBox="0 0 200.000000 200.000000"
 preserveAspectRatio="xMidYMid meet">
<metadata>
Created by potrace 1.14, written by Peter Selinger 2001-2017
</metadata>
<g transform="translate(0.000000,200.000000) scale(0.100000,-0.100000)"
fill="#000000" stroke="none">
<path d="M749 1742 c-49 -4 -68 -28 -73 -90 -4 -44 -1 -54 21 -76 23 -23 36
-28 59 -25 4 0 10 -4 14 -11 4 -6 13 -13 21 -14 15 -3 26 -7 108 -39 29 -11
67 -20 83 -20 51 0 60 19 63 137 3 138 4 136 -146 139 -63 1 -130 1 -150 -1z"/>
<path d="M1204 1742 c-52 -4 -74 -26 -76 -81 -1 -23 -5 -44 -9 -47 -5 -2 -4
-16 1 -29 5 -13 6 -27 1 -29 -5 -3 -8 -16 -7 -28 1 -13 -3 -26 -9 -30 -6 -5
-6 -8 2 -8 6 0 9 -8 6 -19 -5 -20 44 -74 59 -65 4 3 8 1 8 -4 0 -4 23 -15 51
-22 27 -8 52 -18 55 -22 3 -4 15 -8 28 -8 12 0 26 -4 31 -8 6 -5 30 -15 55
-22 25 -7 61 -21 81 -31 45 -22 96 -28 132 -16 25 8 98 97 81 97 -4 0 0 6 10
13 9 7 18 22 19 34 0 12 5 19 9 17 4 -3 8 2 8 10 0 9 5 16 11 16 5 0 7 5 4 10
-3 6 -1 10 5 10 6 0 8 5 5 10 -3 6 -2 10 3 10 5 0 15 14 22 30 7 17 16 30 20
30 3 0 7 6 7 13 0 6 17 40 38 74 41 69 40 93 -2 94 -93 3 -615 3 -649 1z"/>
<path d="M99 1679 c-11 -6 -9 -16 9 -47 12 -21 18 -43 14 -47 -4 -5 -1 -5 6
-1 11 6 14 0 11 -20 0 -4 3 -10 8 -13 18 -12 53 -78 45 -86 -4 -5 -1 -5 6 -1
10 6 14 1 11 -20 0 -3 8 -12 18 -20 10 -7 14 -14 10 -14 -5 0 -1 -7 7 -16 9
-8 14 -20 10 -25 -3 -5 2 -12 10 -15 9 -3 13 -10 10 -15 -3 -5 -2 -9 3 -9 4 0
19 -23 33 -51 13 -27 31 -58 40 -67 8 -10 16 -24 18 -32 7 -29 46 -71 85 -92
67 -34 208 -80 255 -83 51 -4 62 11 68 93 2 30 7 58 10 63 3 5 0 9 -7 9 -8 0
-8 4 -1 13 6 7 10 36 8 64 -1 29 3 55 9 57 5 2 4 5 -3 5 -7 1 -10 6 -6 12 9
16 11 89 1 89 -4 0 -6 3 -5 8 4 15 -14 52 -23 47 -5 -4 -9 -2 -9 3 0 4 -33 19
-72 32 -40 13 -78 27 -84 31 -6 5 -13 6 -16 4 -3 -3 -18 -1 -34 6 -16 6 -38
15 -49 20 -90 36 -386 125 -396 118z"/>
<path d="M905 1383 c-4 -10 -9 -45 -12 -78 -3 -33 -9 -64 -14 -69 -5 -6 -4
-15 3 -24 9 -10 8 -16 -3 -23 -12 -7 -12 -9 1 -9 10 0 11 -3 4 -8 -6 -4 -10
-19 -8 -35 2 -17 -1 -25 -8 -21 -6 4 -6 -1 1 -14 6 -12 7 -23 2 -26 -12 -8 -6
-88 8 -115 7 -12 16 -19 22 -16 5 4 9 2 9 -3 0 -12 78 -44 90 -37 4 3 10 1 12
-3 3 -8 216 -84 272 -96 59 -14 87 11 156 139 18 33 38 63 44 67 6 4 8 8 3 8
-4 0 4 18 18 40 14 22 25 44 25 50 0 5 5 10 11 10 5 0 7 5 4 10 -3 6 -2 10 3
10 12 0 10 42 -3 55 -20 19 -55 35 -75 35 -11 0 -20 5 -20 10 0 6 -3 9 -7 9
-5 -1 -12 0 -18 1 -5 1 -14 3 -20 5 -5 1 -18 3 -28 3 -10 1 -16 6 -13 11 3 5
0 9 -7 8 -39 -1 -58 4 -51 15 4 6 3 8 -3 5 -6 -4 -84 18 -174 48 -175 59 -213
65 -224 38z"/>
<path d="M644 925 c-21 -15 -28 -109 -12 -158 5 -18 10 -37 11 -44 0 -7 4 -10
9 -7 7 5 12 -10 9 -28 0 -5 4 -8 11 -8 6 0 9 -3 6 -6 -4 -3 2 -14 13 -25 11
-11 17 -24 14 -29 -4 -6 -1 -10 5 -10 6 0 9 -4 6 -9 -3 -5 1 -11 9 -15 8 -3
15 -12 15 -21 0 -8 5 -15 11 -15 5 0 7 -4 4 -10 -3 -5 -1 -10 5 -10 6 0 8 -4
5 -10 -3 -5 -2 -10 3 -10 6 0 12 -10 16 -23 3 -12 15 -32 26 -45 11 -12 18
-22 15 -22 -3 0 5 -17 18 -37 12 -21 31 -55 42 -76 21 -40 50 -56 69 -38 6 7
12 48 13 94 1 45 3 82 3 82 1 0 3 39 4 86 1 47 6 91 11 99 5 9 4 11 -3 6 -7
-4 -12 -3 -12 3 0 5 4 12 8 15 14 8 5 144 -11 169 -10 16 -48 34 -128 61 -154
52 -175 56 -195 41z"/>
</g>
</svg>
