<svg xmlns="http://www.w3.org/2000/svg" xmlns:xlink="http://www.w3.org/1999/xlink" viewBox="0 0 86.85 86.85"><defs><clipPath id="a" transform="translate(-450.53 -444.02)"><rect x="450.47" y="443.94" width="86.97" height="86.97" style="fill:none"/></clipPath><clipPath id="b" transform="translate(-450.53 -444.02)"><path d="M450.53,487.45h0q0-1.07.05-2.13t.16-2.13q.1-1.06.26-2.12t.36-2.1q.21-1,.47-2.08t.57-2.05q.31-1,.67-2t.77-2q.41-1,.86-1.95t1-1.9q.5-.94,1.05-1.85t1.14-1.8q.59-.89,1.23-1.74t1.31-1.68q.68-.82,1.39-1.61t1.47-1.54q.75-.75,1.54-1.47t1.61-1.39q.82-.68,1.68-1.31t1.74-1.23q.89-.59,1.8-1.14t1.85-1.05q.94-.5,1.9-1t1.95-.86q1-.41,2-.77t2-.67q1-.31,2.05-.57t2.08-.47q1-.21,2.1-.36t2.12-.26q1.06-.1,2.13-.16T494,444h0q1.07,0,2.13.05t2.13.16q1.06.1,2.12.26t2.1.36q1,.21,2.08.47t2.05.57q1,.31,2,.67t2,.77q1,.41,1.95.86t1.9,1q.94.5,1.85,1.05t1.8,1.14q.89.59,1.74,1.23t1.68,1.31q.82.68,1.61,1.39t1.54,1.47q.75.75,1.47,1.54t1.39,1.61q.68.82,1.31,1.68t1.23,1.74q.59.89,1.14,1.8t1.05,1.85q.5.94,1,1.9t.86,1.95q.41,1,.77,2t.67,2q.31,1,.57,2.05t.47,2.08q.21,1,.36,2.1t.26,2.12q.1,1.06.16,2.13t.05,2.13h0q0,1.07-.05,2.13t-.16,2.13q-.1,1.06-.26,2.12t-.36,2.1q-.21,1-.47,2.08t-.57,2.05q-.31,1-.67,2t-.77,2q-.41,1-.86,1.95t-1,1.9q-.5.94-1.05,1.85t-1.14,1.8q-.59.89-1.23,1.74T527.52,515q-.68.82-1.39,1.61t-1.47,1.54q-.75.75-1.54,1.47T521.5,521q-.82.68-1.68,1.31t-1.74,1.23q-.89.59-1.8,1.14t-1.85,1.05q-.94.5-1.9,1t-1.95.86q-1,.41-2,.77t-2,.67q-1,.31-2.05.57t-2.08.47q-1,.21-2.1.36t-2.12.26q-1.06.1-2.13.16t-2.13.05h0q-1.07,0-2.13-.05t-2.13-.16q-1.06-.1-2.12-.26t-2.1-.36q-1-.21-2.08-.47t-2.05-.57q-1-.31-2-.67t-2-.77q-1-.41-1.95-.86t-1.9-1q-.94-.5-1.85-1.05t-1.8-1.14q-.89-.59-1.74-1.23T466.41,521q-.82-.68-1.61-1.39t-1.54-1.47q-.75-.75-1.47-1.54T460.39,515q-.68-.82-1.31-1.68t-1.23-1.74q-.59-.89-1.14-1.8t-1.05-1.85q-.5-.94-1-1.9t-.86-1.95q-.41-1-.77-2t-.67-2q-.31-1-.57-2.05t-.47-2.08q-.21-1-.36-2.1t-.26-2.12q-.1-1.06-.16-2.13T450.53,487.45Z" style="fill:none"/></clipPath><linearGradient id="c" x1="217.83" y1="80.64" x2="218.6" y2="80.64" gradientTransform="translate(-24483.71 -9020.3) scale(112.4)" gradientUnits="userSpaceOnUse"><stop offset="0" stop-color="#5b2670"/><stop offset="0.44" stop-color="#7a378d"/><stop offset="0.76" stop-color="#7b3a8d"/><stop offset="1" stop-color="#78368a"/><stop offset="1" stop-color="#8d5b9d"/></linearGradient><clipPath id="d" transform="translate(-450.53 -444.02)"><rect x="499.82" y="470.77" width="26.52" height="23.95" style="fill:none"/></clipPath><clipPath id="e" transform="translate(-450.53 -444.02)"><polygon points="526.31 477.13 526.31 470.8 499.9 470.8 499.9 477.13 511.81 477.13 511.81 494.72 519.56 494.72 519.55 477.13 526.31 477.13" style="fill:none"/></clipPath><linearGradient id="f" x1="222.96" y1="73.81" x2="223.73" y2="73.81" gradientTransform="translate(-6012.91 -1969.92) scale(27.21)" gradientUnits="userSpaceOnUse"><stop offset="0" stop-color="#d1d3d4"/><stop offset="0.44" stop-color="#e6e7e8"/><stop offset="0.73" stop-color="#f1f2f2"/><stop offset="0.99" stop-color="#fff"/><stop offset="1" stop-color="#fff"/></linearGradient><clipPath id="g" transform="translate(-450.53 -444.02)"><rect x="485.12" y="470.77" width="22.51" height="23.95" style="fill:none"/></clipPath><clipPath id="h" transform="translate(-450.53 -444.02)"><path d="M499.89,470.8V484.5c0,2.33-1.47,3.79-3.37,3.79a3.61,3.61,0,0,1-3.6-3.79V470.8H485.2V484.5c0,6.19,4.5,10.22,11.3,10.22s11.13-4,11.13-10.22V470.8Z" style="fill:none"/></clipPath><linearGradient id="i" x1="222.73" y1="74.31" x2="223.5" y2="74.31" gradientTransform="translate(-6430.04 -2118) scale(29.02)" xlink:href="#f"/><clipPath id="j" transform="translate(-450.53 -444.02)"><rect x="461.57" y="470.77" width="25.7" height="23.95" style="fill:none"/></clipPath><clipPath id="k" transform="translate(-450.53 -444.02)"><path d="M461.6,482.68c0,7,5.4,12,12.83,12s12.83-5.1,12.83-12-5.4-11.9-12.83-11.9-12.83,5-12.83,11.9m7.93,0a5.2,5.2,0,0,1,5-5.5c2.67,0,4.8,2.3,4.8,5.5s-2.13,5.57-4.8,5.57a5.29,5.29,0,0,1-5-5.57" style="fill:none"/></clipPath><linearGradient id="l" x1="222.09" y1="75.28" x2="222.86" y2="75.28" gradientTransform="translate(-7364.2 -2461.08) scale(33.21)" xlink:href="#f"/></defs><title>OUTsurance logo</title><g style="clip-path:url(#a)"><g style="clip-path:url(#b)"><rect width="86.85" height="86.85" style="fill:url(#c)"/></g></g><g style="clip-path:url(#d)"><g style="clip-path:url(#e)"><rect x="49.37" y="26.77" width="26.41" height="23.92" style="fill:url(#f)"/></g></g><g style="clip-path:url(#g)"><g style="clip-path:url(#h)"><rect x="34.67" y="26.77" width="22.43" height="23.93" style="fill:url(#i)"/></g></g><g style="clip-path:url(#j)"><g style="clip-path:url(#k)"><rect x="11.07" y="26.77" width="25.66" height="23.93" style="fill:url(#l)"/></g></g><path d="M471.87,498.17c-1.31,0-2.2.65-2.2,1.68,0,2.15,3.27,1.4,3.27,2.75,0,.47-.42.73-1.13.73a3.18,3.18,0,0,1-2-.88l-.44.88a3.72,3.72,0,0,0,2.47,1c1.33,0,2.28-.67,2.28-1.75,0-2.18-3.26-1.47-3.26-2.79,0-.41.39-.63,1-.63a3.61,3.61,0,0,1,1.77.56l.42-.9a3.93,3.93,0,0,0-2.12-.62m9.83,0h-1v3.54a1.49,1.49,0,0,1-1.6,1.63,1.51,1.51,0,0,1-1.63-1.63v-3.54h-1v3.54a2.63,2.63,0,0,0,5.26,0v-3.54Zm6.59,6h1.16l-1.36-2a1.94,1.94,0,0,0,1.25-2c0-1.31-.89-2.07-2.44-2.07h-2.45v6h1v-1.82h1.71Zm-2.82-2.74v-2.39h1.44c.93,0,1.47.38,1.47,1.18s-.54,1.22-1.47,1.22Zm10.43,1.37.58,1.37h1.09l-2.64-6h-1l-2.67,6h1.06l.58-1.37Zm-.39-.91h-2.28l1.14-2.69Zm9.4,2.27v-6h-1v4.35l-3.24-4.35h-1v6h1v-4.34l3.22,4.34Zm5.57-6.08a3.06,3.06,0,1,0,0,6.12,3.43,3.43,0,0,0,2.34-1l-.6-.67a2.5,2.5,0,0,1-1.69.72,2.13,2.13,0,1,1,0-4.26,2.37,2.37,0,0,1,1.69.77l.6-.74a3.34,3.34,0,0,0-2.3-.93m9,.94v-.92h-4.32v6h4.42v-.92h-3.4v-1.67h3v-.92h-3v-1.63h3.3Z" transform="translate(-450.53 -444.02)" style="fill:#fff"/></svg>